<svg xmlns="http://www.w3.org/2000/svg" viewBox="0 0 240 240" role="img" aria-labelledby="title desc"><title id="title">RET14-emblem</title><desc id="desc">Premium skatterett-emblem for Haugnes Flashcards</desc><defs><linearGradient id="g" x1="32" y1="18" x2="208" y2="222" gradientUnits="userSpaceOnUse"><stop stop-color="#6f94ff"/><stop offset=".48" stop-color="#2f62ff"/><stop offset="1" stop-color="#0c2a74"/></linearGradient><linearGradient id="gold" x1="63" y1="42" x2="185" y2="205" gradientUnits="userSpaceOnUse"><stop stop-color="#ffe5a4"/><stop offset=".54" stop-color="#e8bc68"/><stop offset="1" stop-color="#a96b22"/></linearGradient><filter id="s" x="-20%" y="-20%" width="140%" height="140%"><feDropShadow dx="0" dy="18" stdDeviation="13" flood-color="#020817" flood-opacity=".45"/><feDropShadow dx="0" dy="0" stdDeviation="10" flood-color="#2f62ff" flood-opacity=".35"/></filter></defs><path d="M120 14 203 48v62c0 53-33 96-83 116-50-20-83-63-83-116V48l83-34Z" fill="url(#g)" filter="url(#s)"/><path d="M120 28 190 57v53c0 45-27 80-70 98-43-18-70-53-70-98V57l70-29Z" fill="#061735" opacity=".88" stroke="url(#gold)" stroke-width="3"/><circle cx="120" cy="94" r="37" fill="rgba(47,98,255,.18)" stroke="url(#gold)" stroke-width="3"/><path d="M120 64v80M88 91h64M101 91l-18 38h36L101 91Zm38 0-18 38h36l-18-38Z" fill="none" stroke="#ffe5a4" stroke-width="8" stroke-linecap="round" stroke-linejoin="round"/><path d="M92 156h56" stroke="#e8bc68" stroke-width="9" stroke-linecap="round"/><text x="120" y="188" text-anchor="middle" font-family="Inter,Arial,sans-serif" font-size="28" font-weight="900" fill="#fff" letter-spacing="1">RET14</text></svg>