<svg xmlns="http://www.w3.org/2000/svg" viewBox="0 0 320 320" role="img" aria-label="Haugnes Flashcards ikon">
  <defs>
    <linearGradient id="bg" x1="0" y1="0" x2="1" y2="1">
      <stop offset="0" stop-color="#0b244e"/>
      <stop offset="1" stop-color="#07142f"/>
    </linearGradient>
    <linearGradient id="paper" x1="0" y1="0" x2="1" y2="1">
      <stop offset="0" stop-color="#ffffff"/>
      <stop offset="1" stop-color="#dfe7f4"/>
    </linearGradient>
    <linearGradient id="gold" x1="0" y1="0" x2="1" y2="1">
      <stop offset="0" stop-color="#f8dc8d"/>
      <stop offset="1" stop-color="#d59b2c"/>
    </linearGradient>
    <filter id="shadow" x="-25%" y="-25%" width="150%" height="150%">
      <feDropShadow dx="0" dy="14" stdDeviation="14" flood-color="#000000" flood-opacity="0.35"/>
    </filter>
  </defs>
  <rect width="320" height="320" rx="70" fill="url(#bg)"/>
  <circle cx="236" cy="82" r="42" fill="#1f4fb7" opacity="0.20"/>
  <path d="M70 236c38 25 110 27 178 0" fill="none" stroke="#f0c366" stroke-width="7" stroke-linecap="round" opacity="0.75"/>
  <g filter="url(#shadow)">
    <rect x="88" y="72" width="134" height="176" rx="20" fill="url(#paper)" transform="rotate(-5 155 160)"/>
    <rect x="108" y="58" width="134" height="176" rx="20" fill="#f8fbff" stroke="#b8c7de" stroke-width="3" transform="rotate(5 175 146)"/>
    <rect x="126" y="78" width="98" height="138" rx="13" fill="#0b244e" opacity="0.96" transform="rotate(5 175 146)"/>
    <path d="M154 113v73M196 113v73M154 149h42" stroke="#ffffff" stroke-width="17" stroke-linecap="round" stroke-linejoin="round" transform="rotate(5 175 146)"/>
    <path d="M139 204c20 17 52 17 72 0" fill="none" stroke="url(#gold)" stroke-width="8" stroke-linecap="round" transform="rotate(5 175 146)"/>
  </g>
  <path d="M119 258c20 10 51 14 72 4" fill="none" stroke="#d7a749" stroke-width="5" stroke-linecap="round" opacity="0.75"/>
  <circle cx="89" cy="74" r="5" fill="#e8bc68"/>
  <path d="M89 54v-14M89 108v-14M69 74H55M123 74h-14" stroke="#e8bc68" stroke-width="5" stroke-linecap="round" opacity="0.75"/>
</svg>
